<svg width="145" height="36" viewBox="0 0 145 36" fill="none" xmlns="http://www.w3.org/2000/svg">
<g style="mix-blend-mode:multiply">
<path d="M15.0516 6.7761C12.8395 9.28387 8.69507 9.71653 6.92455 9.90416C2.746 9.96997 6.10352e-05 12.0185 6.10352e-05 15.1745C0.0511747 13.8793 0.0582745 13.7127 0.231493 12.7228C0.539595 11.3912 0.69435 10.7233 1.46815 9.12844C1.99491 8.19731 2.44925 7.39359 3.41757 6.29303C4.12953 5.52192 4.91923 4.82429 5.77447 4.21092C6.53492 3.69063 7.343 3.24155 8.18818 2.86953C8.57863 2.71831 9.09829 2.51808 9.49442 2.38646C10.3376 2.13471 11.2132 2.00455 12.0941 2C16.5367 2.19043 16.6589 4.94043 15.0445 6.7761H15.0516Z" fill="#6C8FFC"/>
</g>
<g style="mix-blend-mode:multiply">
<path d="M8.19521 2.86955C7.34993 3.24135 6.54183 3.69044 5.78151 4.21094C4.92587 4.82382 4.13612 5.5215 3.42461 6.29305C2.71469 7.14717 2.16097 7.82067 1.47519 9.12846C0.894483 10.3886 0.603407 11.0117 0.238512 12.7228C0.0425764 14.039 0.0212783 14.1762 0.00708008 15.1745C0.00981212 15.6528 0.0679415 16.1291 0.180312 16.5944C0.806454 19.2547 3.04268 21.9291 6.03567 23.9552C11.8569 27.2737 15.6195 23.3657 14.5915 19.1301C13.9838 16.6252 12.2502 15.1661 11.3259 14.382C8.6879 12.5968 6.71859 10.2402 6.16628 7.89488C5.53304 5.20789 6.91596 3.19439 9.51565 2.38647C9.12236 2.5265 8.59276 2.70152 8.20941 2.86955H8.19521Z" fill="#0A44FA"/>
</g>
<g style="mix-blend-mode:multiply">
<path d="M16.9484 29.2239C19.1605 26.7161 23.3049 26.2835 25.0755 26.0958C29.254 26.03 31.9999 23.9815 31.9999 20.8255C31.9488 22.1207 31.9417 22.2873 31.7685 23.2772C31.4604 24.6088 31.3057 25.2767 30.5318 26.8716C30.0051 27.8027 29.5508 28.6064 28.5824 29.707C27.8705 30.4781 27.0808 31.1757 26.2255 31.7891C25.4651 32.3094 24.657 32.7585 23.8118 33.1305C23.4214 33.2817 22.9017 33.4819 22.5056 33.6135C21.6624 33.8653 20.7868 33.9955 19.9059 34C15.4633 33.8096 15.3411 31.0596 16.9555 29.2239L16.9484 29.2239Z" fill="#6C8FFC"/>
</g>
<g style="mix-blend-mode:multiply">
<path d="M23.8048 33.1305C24.6501 32.7587 25.4582 32.3096 26.2185 31.7891C27.0741 31.1762 27.8639 30.4785 28.5754 29.707C29.2853 28.8528 29.839 28.1793 30.5248 26.8715C31.1055 25.6114 31.3966 24.9883 31.7615 23.2772C31.9574 21.961 31.9787 21.8238 31.9929 20.8255C31.9902 20.3472 31.9321 19.8709 31.8197 19.4056C31.1935 16.7453 28.9573 14.0709 25.9643 12.0448C20.1431 8.72628 16.3805 12.6342 17.4085 16.8699C18.0162 19.3748 19.7498 20.8339 20.6741 21.618C23.3121 23.4032 25.2814 25.7598 25.8337 28.1051C26.467 30.7921 25.084 32.8056 22.4843 33.6135C22.8776 33.4735 23.4072 33.2985 23.7906 33.1305L23.8048 33.1305Z" fill="#0A44FA"/>
</g>
<path d="M51.44 26.1681C50.272 26.1681 49.216 25.9681 48.272 25.5681C47.344 25.1681 46.608 24.5921 46.064 23.8401C45.52 23.0881 45.24 22.2001 45.224 21.1761H48.824C48.872 21.8641 49.112 22.4081 49.544 22.8081C49.992 23.2081 50.6 23.4081 51.368 23.4081C52.152 23.4081 52.768 23.2241 53.216 22.8561C53.664 22.4721 53.888 21.9761 53.888 21.3681C53.888 20.8721 53.736 20.4641 53.432 20.1441C53.128 19.8241 52.744 19.5761 52.28 19.4001C51.832 19.2081 51.208 19.0001 50.408 18.7761C49.32 18.4561 48.432 18.1441 47.744 17.8401C47.072 17.5201 46.488 17.0481 45.992 16.4241C45.512 15.7841 45.272 14.9361 45.272 13.8801C45.272 12.8881 45.52 12.0241 46.016 11.2881C46.512 10.5521 47.208 9.99206 48.104 9.60806C49 9.20806 50.024 9.00806 51.176 9.00806C52.904 9.00806 54.304 9.43206 55.376 10.2801C56.464 11.1121 57.064 12.2801 57.176 13.7841H53.48C53.448 13.2081 53.2 12.7361 52.736 12.3681C52.288 11.9841 51.688 11.7921 50.936 11.7921C50.28 11.7921 49.752 11.9601 49.352 12.2961C48.968 12.6321 48.776 13.1201 48.776 13.7601C48.776 14.2081 48.92 14.5841 49.208 14.8881C49.512 15.1761 49.88 15.4161 50.312 15.6081C50.76 15.7841 51.384 15.9921 52.184 16.2321C53.272 16.5521 54.16 16.8721 54.848 17.1921C55.536 17.5121 56.128 17.9921 56.624 18.6321C57.12 19.2721 57.368 20.1121 57.368 21.1521C57.368 22.0481 57.136 22.8801 56.672 23.6481C56.208 24.4161 55.528 25.0321 54.632 25.4961C53.736 25.9441 52.672 26.1681 51.44 26.1681Z" fill="#202020"/>
<path d="M59.417 19.3041C59.417 17.9601 59.681 16.7681 60.209 15.7281C60.753 14.6881 61.481 13.8881 62.393 13.3281C63.321 12.7681 64.353 12.4881 65.489 12.4881C66.481 12.4881 67.345 12.6881 68.081 13.0881C68.833 13.4881 69.433 13.9921 69.881 14.6001V12.7041H73.265V26.0001H69.881V24.0561C69.449 24.6801 68.849 25.2001 68.081 25.6161C67.329 26.0161 66.457 26.2161 65.465 26.2161C64.345 26.2161 63.321 25.9281 62.393 25.3521C61.481 24.7761 60.753 23.9681 60.209 22.9281C59.681 21.8721 59.417 20.6641 59.417 19.3041ZM69.881 19.3521C69.881 18.5361 69.721 17.8401 69.401 17.2641C69.081 16.6721 68.649 16.2241 68.105 15.9201C67.561 15.6001 66.977 15.4401 66.353 15.4401C65.729 15.4401 65.153 15.5921 64.625 15.8961C64.097 16.2001 63.665 16.6481 63.329 17.2401C63.009 17.8161 62.849 18.5041 62.849 19.3041C62.849 20.1041 63.009 20.8081 63.329 21.4161C63.665 22.0081 64.097 22.4641 64.625 22.7841C65.169 23.1041 65.745 23.2641 66.353 23.2641C66.977 23.2641 67.561 23.1121 68.105 22.8081C68.649 22.4881 69.081 22.0401 69.401 21.4641C69.721 20.8721 69.881 20.1681 69.881 19.3521Z" fill="#202020"/>
<path d="M94.9786 12.7041L91.0906 26.0001H87.4666L85.0426 16.7121L82.6186 26.0001H78.9706L75.0586 12.7041H78.4666L80.8186 22.8321L83.3626 12.7041H86.9146L89.4106 22.8081L91.7626 12.7041H94.9786Z" fill="#202020"/>
<path d="M95.9326 19.3041C95.9326 17.9601 96.1966 16.7681 96.7246 15.7281C97.2686 14.6881 97.9966 13.8881 98.9086 13.3281C99.8366 12.7681 100.869 12.4881 102.005 12.4881C102.997 12.4881 103.861 12.6881 104.597 13.0881C105.349 13.4881 105.949 13.9921 106.397 14.6001V12.7041H109.781V26.0001H106.397V24.0561C105.965 24.6801 105.365 25.2001 104.597 25.6161C103.845 26.0161 102.973 26.2161 101.981 26.2161C100.861 26.2161 99.8366 25.9281 98.9086 25.3521C97.9966 24.7761 97.2686 23.9681 96.7246 22.9281C96.1966 21.8721 95.9326 20.6641 95.9326 19.3041ZM106.397 19.3521C106.397 18.5361 106.237 17.8401 105.917 17.2641C105.597 16.6721 105.165 16.2241 104.621 15.9201C104.077 15.6001 103.493 15.4401 102.869 15.4401C102.245 15.4401 101.669 15.5921 101.141 15.8961C100.613 16.2001 100.181 16.6481 99.8446 17.2401C99.5246 17.8161 99.3646 18.5041 99.3646 19.3041C99.3646 20.1041 99.5246 20.8081 99.8446 21.4161C100.181 22.0081 100.613 22.4641 101.141 22.7841C101.685 23.1041 102.261 23.2641 102.869 23.2641C103.493 23.2641 104.077 23.1121 104.621 22.8081C105.165 22.4881 105.597 22.0401 105.917 21.4641C106.237 20.8721 106.397 20.1681 106.397 19.3521Z" fill="#202020"/>
<path d="M116.374 9.24806V19.6161C116.374 20.7521 116.67 21.6241 117.262 22.2321C117.854 22.8241 118.686 23.1201 119.758 23.1201C120.846 23.1201 121.686 22.8241 122.278 22.2321C122.87 21.6241 123.166 20.7521 123.166 19.6161V9.24806H126.55V19.5921C126.55 21.0161 126.238 22.2241 125.614 23.2161C125.006 24.1921 124.182 24.9281 123.142 25.4241C122.118 25.9201 120.974 26.1681 119.71 26.1681C118.462 26.1681 117.326 25.9201 116.302 25.4241C115.294 24.9281 114.494 24.1921 113.902 23.2161C113.31 22.2241 113.014 21.0161 113.014 19.5921V9.24806H116.374Z" fill="#202020"/>
<path d="M133.157 14.6241C133.589 14.0161 134.181 13.5121 134.933 13.1121C135.701 12.6961 136.573 12.4881 137.549 12.4881C138.685 12.4881 139.709 12.7681 140.621 13.3281C141.549 13.8881 142.277 14.6881 142.805 15.7281C143.349 16.7521 143.621 17.9441 143.621 19.3041C143.621 20.6641 143.349 21.8721 142.805 22.9281C142.277 23.9681 141.549 24.7761 140.621 25.3521C139.709 25.9281 138.685 26.2161 137.549 26.2161C136.573 26.2161 135.709 26.0161 134.957 25.6161C134.221 25.2161 133.621 24.7121 133.157 24.1041V32.3361H129.797V12.7041H133.157V14.6241ZM140.189 19.3041C140.189 18.5041 140.021 17.8161 139.685 17.2401C139.365 16.6481 138.933 16.2001 138.389 15.8961C137.861 15.5921 137.285 15.4401 136.661 15.4401C136.053 15.4401 135.477 15.6001 134.933 15.9201C134.405 16.2241 133.973 16.6721 133.637 17.2641C133.317 17.8561 133.157 18.5521 133.157 19.3521C133.157 20.1521 133.317 20.8481 133.637 21.4401C133.973 22.0321 134.405 22.4881 134.933 22.8081C135.477 23.1121 136.053 23.2641 136.661 23.2641C137.285 23.2641 137.861 23.1041 138.389 22.7841C138.933 22.4641 139.365 22.0081 139.685 21.4161C140.021 20.8241 140.189 20.1201 140.189 19.3041Z" fill="#202020"/>
</svg>
